<?xml version="1.0" encoding="UTF-8" standalone="no"?>
<svg
   width="1088.701"
   height="607.177"
   viewBox="0 0 1088.701 607.177"
   version="1.1"
   id="svg5848"
   sodipodi:docname="bg-galaxy.svg"
   inkscape:version="1.2 (dc2aedaf03, 2022-05-15)"
   xmlns:inkscape="http://www.inkscape.org/namespaces/inkscape"
   xmlns:sodipodi="http://sodipodi.sourceforge.net/DTD/sodipodi-0.dtd"
   xmlns="http://www.w3.org/2000/svg"
   xmlns:svg="http://www.w3.org/2000/svg">
  <defs
     id="defs5852" />
  <sodipodi:namedview
     id="namedview5850"
     pagecolor="#ffffff"
     bordercolor="#666666"
     borderopacity="1.0"
     inkscape:showpageshadow="2"
     inkscape:pageopacity="0.0"
     inkscape:pagecheckerboard="0"
     inkscape:deskcolor="#d1d1d1"
     showgrid="false"
     inkscape:zoom="1.8693066"
     inkscape:cx="544.31947"
     inkscape:cy="303.5885"
     inkscape:window-width="3440"
     inkscape:window-height="1351"
     inkscape:window-x="-9"
     inkscape:window-y="-9"
     inkscape:window-maximized="1"
     inkscape:current-layer="svg5848" />
  <g
     id="bg-galaxy"
     transform="translate(-0.003 -0.006)">
    <g
       id="bg">
      <path
         id="Path_324"
         data-name="Path 324"
         d="M454,493c-12.35-57.36,13.64-121.91,68-144,42.81-17.4,108.31-23.17,196-2,232,56,212-8,302-58,79.22-44,176-98,344,4,127.4,77.35,52,198,138,272,55.31,47.59-38,278-306,228s-328.71,20.15-450,46C624,865,372.08,710.32,440,639,480,597,461.77,529.06,454,493Z"
         transform="translate(-428.57 -234.73)"
         fill="#f8f8ff"
         style="opacity:0.15;fill:#0273bd;fill-opacity:1" />
      <path
         id="Path_325"
         data-name="Path 325"
         d="M523.43,507c-10.62-49.31,11.72-104.79,58.45-123.78,36.8-15,93.1-19.91,168.48-1.72,199.42,48.14,182.23-6.88,259.59-49.86,68.09-37.83,151.28-84.24,295.69,3.44,109.51,66.49,44.7,170.19,118.62,233.8,47.54,40.91-32.66,239-263,196S878.71,782.2,774.45,804.42C669.56,826.76,453,693.8,511.4,632.5,545.78,596.39,530.1,538,523.43,507Z"
         transform="translate(-428.57 -234.73)"
         fill="#f5f5fc"
         style="opacity:0.15;fill:#0273bd;fill-opacity:1" />
      <path
         id="Path_326"
         data-name="Path 326"
         d="M601.29,510.1c-9.09-42.22,10-89.73,50.05-106,31.51-12.81,79.72-17.05,144.27-1.47,170.76,41.22,156-5.89,222.29-42.69,58.31-32.39,129.54-72.13,253.2,2.94,93.77,56.93,38.27,145.74,101.57,200.2,40.71,35-28,204.62-225.23,167.82S905.5,745.73,816.22,764.76C726.42,783.91,541,670.05,591,617.56,620.43,586.65,607,536.64,601.29,510.1Z"
         transform="translate(-428.57 -234.73)"
         fill="#add8e6"
         style="opacity:0.15;fill:#0273bd;fill-opacity:1" />
    </g>
    <g
       id="Elippses">
      <circle
         id="Ellipse_60"
         data-name="Ellipse 60"
         cx="8"
         cy="8"
         r="8"
         transform="translate(196.43 292.27)"
         fill="#fff" />
      <circle
         id="Ellipse_61"
         data-name="Ellipse 61"
         cx="4.5"
         cy="4.5"
         r="4.5"
         transform="translate(262.43 247.27)"
         fill="#fff" />
      <circle
         id="Ellipse_62"
         data-name="Ellipse 62"
         cx="5"
         cy="5"
         r="5"
         transform="translate(277.43 368.27)"
         fill="#fff" />
      <circle
         id="Ellipse_63"
         data-name="Ellipse 63"
         cx="5.5"
         cy="5.5"
         r="5.5"
         transform="translate(234.43 437.27)"
         fill="#fff" />
      <circle
         id="Ellipse_64"
         data-name="Ellipse 64"
         cx="5.5"
         cy="5.5"
         r="5.5"
         transform="translate(361.43 460.27)"
         fill="#fff" />
      <circle
         id="Ellipse_65"
         data-name="Ellipse 65"
         cx="6"
         cy="6"
         r="6"
         transform="translate(598.43 457.27)"
         fill="#fff" />
      <circle
         id="Ellipse_66"
         data-name="Ellipse 66"
         cx="5.5"
         cy="5.5"
         r="5.5"
         transform="translate(697.43 329.27)"
         fill="#fff" />
      <circle
         id="Ellipse_67"
         data-name="Ellipse 67"
         cx="4"
         cy="4"
         r="4"
         transform="translate(774.43 256.27)"
         fill="#fff" />
      <circle
         id="Ellipse_68"
         data-name="Ellipse 68"
         cx="5.5"
         cy="5.5"
         r="5.5"
         transform="translate(834.43 271.27)"
         fill="#fff" />
      <circle
         id="Ellipse_69"
         data-name="Ellipse 69"
         cx="5"
         cy="5"
         r="5"
         transform="translate(880.43 202.27)"
         fill="#fff" />
      <circle
         id="Ellipse_70"
         data-name="Ellipse 70"
         cx="5"
         cy="5"
         r="5"
         transform="translate(871.43 405.27)"
         fill="#fff" />
      <circle
         id="Ellipse_71"
         data-name="Ellipse 71"
         cx="5.5"
         cy="5.5"
         r="5.5"
         transform="translate(788.43 466.27)"
         fill="#fff" />
      <circle
         id="Ellipse_72"
         data-name="Ellipse 72"
         cx="9"
         cy="9"
         r="9"
         transform="translate(485.43 388.27)"
         fill="#fff" />
      <circle
         id="Ellipse_73"
         data-name="Ellipse 73"
         cx="9"
         cy="9"
         r="9"
         transform="translate(529.43 290.27)"
         fill="#fff" />
      <circle
         id="Ellipse_74"
         data-name="Ellipse 74"
         cx="9"
         cy="9"
         r="9"
         transform="translate(644.43 247.27)"
         fill="#fff" />
      <circle
         id="Ellipse_75"
         data-name="Ellipse 75"
         cx="9.5"
         cy="9.5"
         r="9.5"
         transform="translate(643.43 382.27)"
         fill="#fff" />
      <circle
         id="Ellipse_76"
         data-name="Ellipse 76"
         cx="9.5"
         cy="9.5"
         r="9.5"
         transform="translate(741.43 369.27)"
         fill="#fff" />
      <circle
         id="Ellipse_77"
         data-name="Ellipse 77"
         cx="9"
         cy="9"
         r="9"
         transform="translate(448.43 329.27)"
         fill="#fff" />
      <circle
         id="Ellipse_78"
         data-name="Ellipse 78"
         cx="9"
         cy="9"
         r="9"
         transform="translate(506.43 409.27)"
         fill="#fff" />
      <circle
         id="Ellipse_79"
         data-name="Ellipse 79"
         cx="9"
         cy="9"
         r="9"
         transform="translate(571.43 340.27)"
         fill="#fff" />
      <circle
         id="Ellipse_80"
         data-name="Ellipse 80"
         cx="8.5"
         cy="8.5"
         r="8.5"
         transform="translate(339.43 365.27)"
         fill="#fff" />
      <circle
         id="Ellipse_81"
         data-name="Ellipse 81"
         cx="8.5"
         cy="8.5"
         r="8.5"
         transform="translate(425.44 256.24)"
         fill="#fff" />
      <path
         id="Path_327"
         data-name="Path 327"
         d="M171.8,439.66l32.63-139.39,140,74,112-36,38,59,21,24,65-73,72,45,97-15"
         fill="none"
         stroke="#fff"
         stroke-linecap="round"
         stroke-linejoin="round"
         stroke-width="3" />
      <path
         id="Path_328"
         data-name="Path 328"
         d="M460.3,338.31l76.91-40.09,116.22-41.95"
         fill="none"
         stroke="#fff"
         stroke-miterlimit="10"
         stroke-width="3" />
      <circle
         id="Ellipse_82"
         data-name="Ellipse 82"
         cx="4.5"
         cy="4.5"
         r="4.5"
         transform="translate(348.43 198.27)"
         fill="#fff" />
      <circle
         id="Ellipse_83"
         data-name="Ellipse 83"
         cx="4"
         cy="4"
         r="4"
         transform="translate(675.43 120.27)"
         fill="#fff" />
      <circle
         id="Ellipse_84"
         data-name="Ellipse 84"
         cx="4.5"
         cy="4.5"
         r="4.5"
         transform="translate(436.43 218.27)"
         fill="#fff" />
      <circle
         id="Ellipse_85"
         data-name="Ellipse 85"
         cx="4"
         cy="4"
         r="4"
         transform="translate(578.43 190.27)"
         fill="#fff" />
      <circle
         id="Ellipse_86"
         data-name="Ellipse 86"
         cx="3.5"
         cy="3.5"
         r="3.5"
         transform="translate(342.43 293.27)"
         fill="#fff" />
      <circle
         id="Ellipse_87"
         data-name="Ellipse 87"
         cx="6"
         cy="6"
         r="6"
         transform="translate(736.43 150.27)"
         fill="#fff" />
      <circle
         id="Ellipse_88"
         data-name="Ellipse 88"
         cx="4"
         cy="4"
         r="4"
         transform="translate(624.43 207.27)"
         fill="#fff" />
      <circle
         id="Ellipse_89"
         data-name="Ellipse 89"
         cx="5"
         cy="5"
         r="5"
         transform="translate(219.43 188.27)"
         fill="#fff" />
      <circle
         id="Ellipse_90"
         data-name="Ellipse 90"
         cx="5"
         cy="5"
         r="5"
         transform="translate(815.43 333.27)"
         fill="#fff" />
      <path
         id="Path_329"
         data-name="Path 329"
         d="M876.43,410.27l-56-72,19-62-61-16"
         fill="none"
         stroke="#fff"
         stroke-miterlimit="10"
         stroke-width="3" />
      <line
         id="Line_6"
         data-name="Line 6"
         x2="22.49"
         y2="73.53"
         transform="translate(433.94 264.74)"
         fill="none"
         stroke="#fff"
         stroke-linecap="round"
         stroke-linejoin="round"
         stroke-width="3" />
    </g>
  </g>
</svg>
